<svg width="17" height="16" viewBox="0 0 17 16" fill="none" xmlns="http://www.w3.org/2000/svg">
<g clip-path="url(#clip0_9546_90)">
<path d="M8.48373 1.45158C9.77565 1.45158 11.0386 1.83468 12.1128 2.55244C13.187 3.27019 14.0242 4.29037 14.5186 5.48395C15.013 6.67754 15.1424 7.99092 14.8903 9.25802C14.6383 10.5251 14.0161 11.689 13.1026 12.6026C12.1891 13.5161 11.0252 14.1382 9.75807 14.3903C8.49097 14.6423 7.17759 14.5129 5.984 14.0185C4.79042 13.5241 3.77025 12.6869 3.05249 11.6127C2.33473 10.5385 1.95163 9.2756 1.95163 7.98368C1.95832 6.25332 2.64867 4.59574 3.87223 3.37218C5.09579 2.14862 6.75337 1.45827 8.48373 1.45158ZM8.48373 5.77648e-06C6.90611 0.00645971 5.36578 0.480174 4.05717 1.36134C2.74857 2.24252 1.73037 3.49164 1.13111 4.95102C0.531846 6.4104 0.378395 8.01461 0.690125 9.56114C1.00186 11.1077 1.76479 12.5272 2.88262 13.6404C4.00044 14.7537 5.42304 15.5108 6.97082 15.8162C8.51861 16.1217 10.1222 15.9617 11.5791 15.3564C13.036 14.7512 14.281 13.7279 15.1568 12.4158C16.0326 11.1036 16.5 9.5613 16.5001 7.98368C16.5001 6.93249 16.2925 5.89165 15.8892 4.92089C15.486 3.95014 14.895 3.06857 14.1502 2.32679C13.4053 1.58501 12.5214 0.997618 11.549 0.598327C10.5766 0.199035 9.5349 -0.00429452 8.48373 5.77648e-06Z" fill="#F2F2F2"/>
<path d="M12.207 7.38129H8.9954V4.16968H7.91397V7.38129H4.69873V8.46271H7.91397V11.6743H8.9954V8.46271H12.207V7.38129Z" fill="#F2F2F2"/>
</g>
<defs>
<clipPath id="clip0_9546_90">
<rect width="16" height="16" fill="white" transform="translate(0.5)"/>
</clipPath>
</defs>
</svg>
